<?xml version="1.0" standalone="no"?><!DOCTYPE svg PUBLIC "-//W3C//DTD SVG 1.1//EN" "http://www.w3.org/Graphics/SVG/1.1/DTD/svg11.dtd"><svg t="1706519182921" class="icon" viewBox="0 0 1024 1024" version="1.1" xmlns="http://www.w3.org/2000/svg" p-id="8014" xmlns:xlink="http://www.w3.org/1999/xlink" width="200" height="200"><path d="M540.444444 3.754667c315.790222 0 496.071111 239.331556 478.890667 492.088889-11.150222 163.84-79.644444 286.947556-179.086222 356.238222a28.444444 28.444444 0 0 1-32.540445-46.705778c85.219556-59.278222 144.896-166.684444 154.851556-313.344 15.075556-222.378667-142.336-431.388444-422.115556-431.388444-166.798222 0-315.733333 124.586667-363.861333 286.321777a356.750222 356.750222 0 0 0-10.126222 52.565334l-2.844445 23.779555-2.446222 26.908445c-0.739556 9.443556-1.479111 19.456-2.104889 29.923555a28.444444 28.444444 0 0 1-3.640889 12.174222l-2.332444 3.584-78.165333 99.84a28.444444 28.444444 0 0 0 9.955555 43.121778l4.835556 1.820445 91.818666 25.486222a28.444444 28.444444 0 0 1 20.195556 21.162667l0.625778 5.233777 8.931555 243.2a28.444444 28.444444 0 0 0 23.438223 26.965334l4.949333 0.398222H408.462222a28.444444 28.444444 0 0 1 5.12 56.433778l-5.12 0.455111H239.672889a85.333333 85.333333 0 0 1-84.593778-74.183111l-0.682667-7.964445-8.135111-222.492444-71.736889-19.911111A85.333333 85.333333 0 0 1 13.255111 598.471111l1.820445-7.964444a85.333333 85.333333 0 0 1 10.24-22.926223l4.778666-6.883555 72.704-93.013333 0.682667-8.874667c3.754667-51.996444 9.102222-91.591111 16.156444-119.239111l2.446223-8.817778C177.038222 146.033778 347.022222 3.754667 540.444444 3.754667z m173.226667 252.472889A85.333333 85.333333 0 1 1 645.290667 392.533333l-48.753778 27.761778a114.403556 114.403556 0 0 1-4.323556 58.026667l119.239111 71.281778a56.888889 56.888889 0 1 1-25.827555 54.556444l-0.227556-3.868444-124.814222-74.467556a113.777778 113.777778 0 1 1 11.719111-157.297778l56.32-31.971555 0.113778-3.242667a85.333333 85.333333 0 0 1 84.935111-77.084444zM484.693333 384.227556a56.888889 56.888889 0 1 0 0 113.777777 56.888889 56.888889 0 0 0 0-113.777777z m229.034667-71.111112a28.444444 28.444444 0 1 0 0 56.888889 28.444444 28.444444 0 0 0 0-56.888889z" fill="#8598C4" p-id="8015"></path></svg>